<?xml version="1.0" encoding="UTF-8"?>
<svg xmlns="http://www.w3.org/2000/svg" xmlns:xlink="http://www.w3.org/1999/xlink" viewBox="0 0 16 16" width="16px" height="16px">
<g id="surface13169819">
<path style=" stroke:none;fill-rule:nonzero;fill:rgb(69.411767%,23.921569%,48.627451%);fill-opacity:1;" d="M 13.332031 0 C 11.859375 0 10.667969 1.191406 10.667969 2.667969 C 10.667969 2.851562 10.691406 3.035156 10.730469 3.207031 L 4.667969 6.25 C 4.175781 5.691406 3.46875 5.332031 2.667969 5.332031 C 1.191406 5.332031 0 6.527344 0 8 C 0 9.472656 1.191406 10.667969 2.667969 10.667969 C 3.46875 10.667969 4.175781 10.308594 4.667969 9.75 L 10.730469 12.792969 C 10.691406 12.964844 10.667969 13.148438 10.667969 13.332031 C 10.667969 14.808594 11.859375 16 13.332031 16 C 14.808594 16 16 14.808594 16 13.332031 C 16 11.859375 14.808594 10.667969 13.332031 10.667969 C 12.53125 10.667969 11.824219 11.023438 11.332031 11.582031 L 5.269531 8.542969 C 5.308594 8.367188 5.332031 8.183594 5.332031 8 C 5.332031 7.816406 5.308594 7.632812 5.269531 7.457031 L 11.332031 4.417969 C 11.824219 4.976562 12.53125 5.332031 13.332031 5.332031 C 14.808594 5.332031 16 4.140625 16 2.667969 C 16 1.191406 14.808594 0 13.332031 0 Z M 13.332031 0 "/>
</g>
</svg>
